<svg width="22" height="22" viewBox="0 0 22 22" fill="none" xmlns="http://www.w3.org/2000/svg">
<path d="M5.382 3.968L8.242 6.828C9.06037 6.28774 10.0194 5.99974 11 5.99974C11.9806 5.99974 12.9396 6.28774 13.758 6.828L16.618 3.968C15.0226 2.69416 13.0416 2.00034 11 2.00034C8.95841 2.00034 6.97744 2.69416 5.382 3.968ZM18.032 5.382L15.172 8.242C15.7123 9.06037 16.0003 10.0194 16.0003 11C16.0003 11.9806 15.7123 12.9396 15.172 13.758L18.032 16.618C19.3058 15.0226 19.9997 13.0416 19.9997 11C19.9997 8.95841 19.3058 6.97744 18.032 5.382ZM16.618 18.032L13.758 15.172C12.9396 15.7123 11.9806 16.0003 11 16.0003C10.0194 16.0003 9.06037 15.7123 8.242 15.172L5.382 18.032C6.97744 19.3058 8.95841 19.9997 11 19.9997C13.0416 19.9997 15.0226 19.3058 16.618 18.032ZM3.968 16.618L6.828 13.758C6.28774 12.9396 5.99974 11.9806 5.99974 11C5.99974 10.0194 6.28774 9.06037 6.828 8.242L3.968 5.382C2.69416 6.97744 2.00034 8.95841 2.00034 11C2.00034 13.0416 2.69416 15.0226 3.968 16.618ZM3.222 3.222C7.518 -1.074 14.482 -1.074 18.778 3.222C23.074 7.518 23.074 14.482 18.778 18.778C14.482 23.074 7.518 23.074 3.222 18.778C-1.074 14.482 -1.074 7.518 3.222 3.222ZM13.122 8.879C12.8443 8.59667 12.5134 8.37211 12.1485 8.21829C11.7836 8.06446 11.3918 7.98441 10.9958 7.98275C10.5998 7.98109 10.2074 8.05786 9.84115 8.20862C9.47495 8.35938 9.14222 8.58116 8.86216 8.86115C8.5821 9.14115 8.36024 9.47383 8.20939 9.83999C8.05855 10.2062 7.98169 10.5986 7.98325 10.9946C7.98482 11.3906 8.06478 11.7824 8.21852 12.1474C8.37225 12.5123 8.59673 12.8432 8.879 13.121C9.44654 13.6578 10.2011 13.9521 10.9822 13.9412C11.7634 13.9304 12.5094 13.6152 13.0618 13.0628C13.6142 12.5104 13.9294 11.7644 13.9402 10.9832C13.9511 10.2021 13.6568 9.44754 13.12 8.88L13.122 8.879Z" fill="#FF3E6C"/>
</svg>
