<svg width="17" height="10" viewBox="0 0 17 10" fill="none" xmlns="http://www.w3.org/2000/svg">
<path d="M8.5 10C8.28658 10.0002 8.07521 9.95878 7.87805 9.87807C7.68089 9.79735 7.50181 9.67895 7.35111 9.52967L0.456162 2.72037C0.160152 2.41762 -0.00364104 2.01214 6.14297e-05 1.59126C0.0037639 1.17038 0.174666 0.767774 0.475957 0.470155C0.777249 0.172536 1.18482 0.00371802 1.6109 6.06812e-05C2.03697 -0.00359666 2.44745 0.158199 2.75394 0.450601L8.5 6.12502L14.2461 0.450601C14.5525 0.158199 14.963 -0.00359666 15.3891 6.06812e-05C15.8152 0.00371802 16.2227 0.172536 16.524 0.470155C16.8253 0.767774 16.9962 1.17038 16.9999 1.59126C17.0036 2.01214 16.8398 2.41762 16.5438 2.72037L9.64889 9.52967C9.49818 9.67895 9.31911 9.79735 9.12195 9.87807C8.92479 9.95878 8.71342 10.0002 8.5 10Z" fill="#02111B"/>
</svg>
