<svg width="80" height="80" viewBox="0 0 80 80" fill="none" xmlns="http://www.w3.org/2000/svg">
<circle opacity="0.1" cx="40" cy="40" r="40" fill="#0D57C6"/>
<path d="M56.1253 24.1449C56.2159 24.348 56.1958 24.2545 56.2122 24.4185C56.0806 25.581 56.0764 25.614 56.0719 25.6488C55.4024 30.8687 52.7368 36.4913 48.5619 40.2647C48.5057 40.3179 48.1492 40.6191 47.5342 41.1352C47.2809 41.3476 47.0493 41.5416 46.819 41.7344C46.6788 41.8517 46.7416 41.7991 46.6307 41.8918C46.6139 42.0306 46.596 42.1751 46.5761 42.3313C46.5192 42.7778 46.4576 43.2289 46.3936 43.6568C46.3823 43.732 46.3711 43.806 46.3599 43.8786C46.2731 44.4392 46.1896 44.9032 46.1106 45.2449C45.5923 47.4875 43.5592 51.0537 41.5703 54.5118L41.5649 54.521C41.219 55.0859 40.9013 55.5204 40.6635 55.7513C40.4679 55.9414 40.3078 56.0372 40.0822 55.9866C39.8928 55.9441 39.7784 55.8007 39.7413 55.632C39.7214 55.5422 39.7231 55.4478 39.7398 55.3359C40.0245 52.8159 40.2541 50.2424 40.0363 47.7066C40.0093 47.7458 40.0324 47.7116 39.9754 47.8144C39.972 47.8211 39.9683 47.8277 39.9645 47.8341C39.2619 49.014 38.3638 49.4638 37.2462 48.5821L37.0005 48.3871C36.7569 49.3122 36.2056 50.105 35.5451 50.7801C34.9415 51.3578 33.1574 52.6596 32.7967 52.7248C32.6054 52.7494 32.4638 52.6611 32.3711 52.4945C32.3546 52.4649 32.3574 52.4279 32.3505 52.3946C31.8928 52.8534 31.3886 53.2627 30.8784 53.6613C30.549 53.9141 30.2554 54.1201 30.0384 54.2488C29.9063 54.3271 29.7989 54.3797 29.7035 54.407C29.6038 54.4355 29.5102 54.4428 29.4023 54.4042C29.2099 54.3355 29.1127 54.1549 29.1267 53.9786C29.1271 53.8836 29.1655 53.8003 29.2027 53.7154C29.2123 53.7107 28.3562 54.1272 28.0847 54.2561C27.6216 54.4758 27.2098 54.6613 26.8067 54.8282C26.0249 55.1521 25.3249 55.3851 24.6914 55.517C24.4081 55.5761 24.1628 55.3148 24.2393 55.0358C24.4022 54.4419 24.6532 53.7882 24.9848 53.0633C25.168 52.6625 25.3701 52.2522 25.6062 51.795C26.2376 50.595 26.2034 50.6607 26.2625 50.5464C26.1285 50.5913 25.9945 50.6411 25.8526 50.6523C25.6699 50.6642 25.4907 50.5645 25.4246 50.3711C25.3876 50.2627 25.3961 50.1692 25.426 50.0698C25.4547 49.9748 25.5087 49.8682 25.5889 49.7371C25.7206 49.522 25.9306 49.2313 26.1879 48.9053C26.5854 48.3974 27.0131 47.9145 27.4682 47.4578C27.4199 47.4529 27.4569 47.4579 27.3612 47.4239C27.2095 47.3492 27.1158 47.1805 27.151 47.0002C27.2211 46.6405 28.5474 44.8745 29.1319 44.2807C29.8013 43.6098 30.6295 43.1049 31.5464 42.857L31.3541 42.6076C31.0727 42.2098 30.6262 41.6863 30.8227 41.1562C30.9695 40.76 31.7865 40.149 32.1267 39.9439C32.1807 39.8973 32.2348 39.8505 32.2886 39.8036C29.7521 39.6419 27.1758 39.7006 24.6544 40.0439C24.5456 40.0586 24.4512 40.0589 24.3617 40.0379C24.1935 39.9983 24.0517 39.882 24.0119 39.6921C23.9643 39.4658 24.0625 39.3071 24.2552 39.1139C24.4894 38.8795 24.9282 38.5678 25.4978 38.2298L25.507 38.2245C28.9924 36.2837 32.6178 34.332 34.8673 33.8449C35.2101 33.7705 35.6753 33.6934 36.237 33.6145C36.3098 33.6043 36.3839 33.5941 36.4592 33.5839C36.888 33.5258 37.3398 33.4705 37.7871 33.4198L38.2273 33.3712C38.3215 33.2616 38.2682 33.3237 38.3874 33.1851C38.9814 32.4957 38.9814 32.4957 38.9964 32.4784C39.5209 31.8706 39.8271 31.5182 39.8749 31.4693C43.7119 27.3405 49.3395 24.7213 54.5682 24.1241C55.4491 24.0185 55.6132 24.0016 55.8236 24C55.9588 24.0134 55.8809 23.997 56.0513 24.0719L56.1253 24.1449ZM36.3367 47.853C36.0784 47.6216 36.2257 47.7536 35.8944 47.4575C35.7417 47.7803 35.5062 48.0533 35.265 48.3121L35.2564 48.3206C34.8719 48.6888 33.9376 49.358 33.6686 49.4066L33.6594 49.4082L33.6501 49.4094C33.5593 49.4156 33.4607 49.4236 33.3761 49.3789C33.2088 49.5324 33.03 49.6723 32.8518 49.8126C32.6716 49.9509 32.5118 50.0627 32.3879 50.1362C32.2927 50.1926 32.2134 50.2304 32.1307 50.2541C32.0047 50.2901 31.881 50.2915 31.7519 50.2453C31.61 50.182 31.6757 50.2157 31.5126 50.0844C31.3945 50.1414 31.444 50.1177 31.3641 50.1559C31.115 50.274 30.9019 50.3695 30.6969 50.4545C30.2682 50.632 29.8939 50.7546 29.5548 50.8252C29.1404 50.9115 28.7814 50.5294 28.8934 50.1212C28.9801 49.8052 29.1122 49.4571 29.293 49.0619C29.3861 48.8581 29.4903 48.6458 29.6181 48.3983C29.6725 48.295 29.6439 48.3493 29.704 48.2351C29.599 48.1804 29.548 48.0678 29.5031 47.9651C29.4588 47.8354 29.4619 47.7118 29.4997 47.5859C29.5245 47.5038 29.5634 47.4249 29.6211 47.3306C29.6961 47.2079 29.8101 47.0499 29.95 46.8726C30.1998 46.5631 30.0544 46.7372 30.3921 46.3554C30.3412 46.2646 30.3577 46.1571 30.3684 46.0602C30.4207 45.792 31.1027 44.8671 31.4771 44.4867C31.7363 44.2388 32.0243 44.0028 32.3576 43.8616C32.135 43.608 32.2318 43.7189 32.0668 43.5291L31.8379 43.579C31.1206 43.7403 30.2821 44.208 29.6851 44.8219C29.4629 45.0478 29.0251 45.5837 28.6137 46.1315L28.5278 46.2471C28.8347 46.1022 28.657 46.1884 29.0586 45.9841C29.4578 45.7763 29.8303 46.3023 29.5017 46.6099L28.2856 47.7479L28.2743 47.7582C27.9013 48.0808 27.3005 48.745 26.7954 49.3849C26.6233 49.6071 26.6791 49.5299 26.6207 49.611C26.698 49.5838 26.7777 49.5663 26.8592 49.5598C27.1935 49.5358 27.3386 49.8051 27.3067 50.0584C27.2957 50.1455 27.2656 50.2374 27.216 50.3552C26.4723 51.8071 26.3826 51.9784 26.2938 52.1502C26.063 52.5972 25.8661 52.9969 25.6886 53.3851C25.3657 54.1186 25.5336 53.7182 25.1928 54.5898C25.6419 54.4594 26.0775 54.2886 26.5105 54.1132C26.9001 53.9518 27.3007 53.7715 27.7528 53.5569C29.1735 52.8701 29.3954 52.7698 29.5665 52.7077C29.6896 52.663 29.7871 52.6377 29.8807 52.6339C30.124 52.6239 30.3595 52.7777 30.3511 53.0768L30.3505 53.09L30.4074 53.0472C31.0542 52.5511 31.7267 51.9596 32.0544 51.591L32.0648 51.5798L33.2196 50.3797C33.5212 50.0662 34.0307 50.412 33.8507 50.808L33.6162 51.3243L33.6856 51.2742C34.2391 50.8704 34.7811 50.4401 35.0116 50.2194C35.632 49.6326 36.1114 48.8006 36.282 48.0879L36.3367 47.853ZM35.3173 46.9369C33.7135 45.3688 33.3659 44.9851 33.0186 44.6014L32.8658 44.4464C32.5343 44.5613 32.2543 44.7684 32.0017 45.0064C31.8725 45.1376 31.6423 45.42 31.4337 45.7029C31.3562 45.8084 31.2797 45.9148 31.2082 46.0244L31.7021 46.0739L31.1537 46.6243C30.9314 46.8474 30.7237 47.0821 30.5306 47.3289C30.4266 47.4632 30.4706 47.4037 30.3967 47.5061L31.0249 47.2955L30.6068 48.1046C30.5884 48.14 30.5835 48.1495 30.5478 48.2174C30.5338 48.2439 30.3668 48.5613 30.2729 48.7397C30.1515 48.9748 30.0524 49.1767 29.9645 49.369C29.7927 49.7596 29.883 49.5419 29.7 50.0249C30.2288 49.852 29.9917 49.9391 30.4143 49.7722C30.607 49.6924 30.809 49.6018 31.0475 49.4887C31.0959 49.4657 31.1863 49.4221 31.3062 49.3641L31.3091 49.3627C31.3759 49.3304 31.4469 49.2959 31.5197 49.2606C31.5602 49.2409 31.5602 49.2409 31.5884 49.2272C31.5997 49.2216 31.5997 49.2216 31.6072 49.2181C31.6101 49.2166 31.6101 49.2166 31.612 49.2157C31.6128 49.2153 31.6128 49.2153 31.6134 49.215C31.6137 49.2148 31.6137 49.2148 31.6151 49.2142C31.6159 49.2138 31.6159 49.2138 31.6428 49.2023L31.7993 49.5581L32.1021 49.6909C32.1016 49.6116 32.0593 49.5832 32.0002 49.5499C31.9723 49.5399 31.941 49.5403 31.9277 49.544C31.9305 49.5433 31.9375 49.5405 31.9486 49.5352C31.9649 49.5275 31.9857 49.5162 32.0114 49.5009C32.1059 49.4449 32.2434 49.3487 32.3997 49.2288C32.7182 48.9799 32.925 48.8045 33.1146 48.6145L33.5999 48.1281L33.6928 48.5821C33.8119 48.5083 33.9263 48.427 34.0407 48.3462C34.2816 48.1711 34.5217 47.9932 34.7412 47.7915C34.93 47.599 35.0967 47.3853 35.2248 47.1473C35.2897 47.0072 35.2589 47.0774 35.3173 46.9369ZM37.573 34.2244C36.995 34.2927 37.3318 34.2516 36.5631 34.3508C36.489 34.3608 36.4162 34.3709 36.3448 34.381C35.8003 34.4574 35.3514 34.5319 35.0311 34.6012C31.9945 35.3551 28.6121 37.3958 25.8887 38.8978C25.6196 39.0605 25.7648 38.9706 25.4543 39.1697C27.2508 38.9954 29.0581 38.9232 30.8629 38.9544C31.63 38.9577 32.4003 38.9838 33.1466 39.1743C33.7266 38.6484 34.2565 38.071 34.7757 37.4861C35.2504 36.9465 36.3245 35.812 36.8163 35.1946C37.0716 34.8736 37.3246 34.5508 37.573 34.2244ZM45.7734 42.498C45.4508 42.7198 45.1353 42.9516 44.8194 43.1824C44.1575 43.6703 42.9433 44.7066 42.3727 45.1881C41.891 45.5961 41.4196 46.0176 40.9819 46.4731C40.8827 46.5762 40.7879 46.6836 40.691 46.789L40.7001 46.8157C41.0193 49.3738 40.8945 52.0001 40.6199 54.5585C40.8279 54.2438 40.7345 54.3901 40.9023 54.121C42.4083 51.4033 44.5909 48.109 45.3565 45.0706C45.4304 44.7513 45.5109 44.3036 45.595 43.7602C45.6061 43.6889 45.6171 43.6163 45.6281 43.5423C45.7397 42.763 45.6922 43.1112 45.7733 42.498H45.7734ZM53.8766 30.7862C52.5465 29.9784 51.3801 28.8895 50.3973 27.6874C50.0663 27.2825 49.6395 26.7122 49.3853 26.2493C45.7715 27.5828 43.1164 29.2526 40.4356 32.0026C40.3995 32.0397 40.0666 32.4228 39.5824 32.984C39.3667 33.2339 39.1697 33.4626 38.974 33.6899C38.5574 34.2059 38.4669 34.3267 38.3658 34.4606C38.0768 34.8427 37.759 35.2534 37.4217 35.6768C36.9225 36.3034 35.8405 37.4474 35.3567 37.9973C34.5135 38.9145 33.6369 39.9534 32.5504 40.5919L32.5486 40.5932C32.1133 40.8442 31.5611 41.3523 31.5492 41.4231C31.5356 41.5039 31.6394 41.7078 31.9675 42.1358L32.5284 42.8626L32.5497 42.8991L32.5524 42.8975C32.8135 43.3256 36.4176 46.9708 36.9969 47.3963L36.9959 47.3976L37.0085 47.4051L37.7264 47.9752C38.1508 48.3101 38.3533 48.4167 38.4342 48.4042C38.6135 48.3229 39.1923 47.6138 39.2934 47.4481C39.8877 46.3068 40.9085 45.4204 41.8736 44.5965C42.4583 44.1031 43.6855 43.0567 44.3602 42.5594C44.7801 42.2499 45.1866 41.9611 45.5645 41.7005C46.1672 41.2706 46.2418 41.2082 46.3223 41.1408C47.0191 40.557 47.0191 40.557 47.0367 40.5423C47.6044 40.0658 47.9921 39.7383 48.0364 39.6966C50.8249 37.0834 52.4934 34.3577 53.8766 30.7862ZM49.8047 30.5537C50.9053 31.8328 50.8265 33.6827 49.6628 34.8899C48.4243 36.1115 46.4299 36.0977 45.2083 34.8591C43.9867 33.6204 44.0006 31.6261 45.2392 30.4045C46.4777 29.183 48.4722 29.1967 49.6937 30.4354L49.8047 30.5537ZM49.2264 31.068L49.1427 30.9788C48.2212 30.0445 46.7169 30.0341 45.7826 30.9556C44.8484 31.877 44.838 33.3813 45.7593 34.3156C46.6808 35.2499 48.1851 35.2603 49.1194 34.3389C50.0441 33.4009 50.0314 32.0688 49.2264 31.068ZM55.3955 24.8082C55.0136 24.8601 54.8322 24.8812 54.65 24.8938C53.1075 25.086 51.6096 25.4984 50.1349 25.976C51.0161 27.3795 52.1558 28.6201 53.4964 29.5978C53.7129 29.7558 53.9404 29.898 54.1625 30.0481C54.7154 28.598 55.0849 27.0854 55.3042 25.5508C55.3498 25.1942 55.3744 25.0014 55.3955 24.8082Z" fill="#0D57C6"/>
<path d="M48.5977 31.4876L48.7045 31.5996C48.9493 31.8979 49.0532 32.2451 49.0723 32.6244C49.0723 33.5142 48.351 34.2355 47.4612 34.2355C46.5714 34.2355 45.8501 33.5142 45.8501 32.6244C45.8501 31.7346 46.5714 31.0133 47.4612 31.0133C47.8351 31.0179 48.1962 31.1423 48.486 31.3812L48.5977 31.4876ZM48.0663 31.9972C47.8955 31.8373 47.6891 31.7728 47.4612 31.7517C46.9793 31.7517 46.5885 32.1425 46.5885 32.6244C46.5885 33.1064 46.9793 33.4971 47.4612 33.4971C47.9432 33.4971 48.3339 33.1064 48.3339 32.6244C48.3344 32.395 48.2586 32.2529 48.1347 32.0693L48.0663 31.9972Z" fill="#0D57C6"/>
</svg>
