<svg width="10" height="9" viewBox="0 0 10 9" fill="none" xmlns="http://www.w3.org/2000/svg">
<path d="M9.50743 1.2042C9.10562 0.391209 7.94764 -0.273962 6.60029 0.113315C5.95646 0.296529 5.39466 0.689437 5.00667 1.22785C4.61902 0.689437 4.05747 0.296529 3.41376 0.113315C2.06365 -0.26805 0.908252 0.391209 0.505928 1.2042C-0.0585262 2.34238 0.175108 3.62246 1.20084 5.00897C2.00463 6.09394 3.15348 7.19369 4.82135 8.47082C4.87406 8.51133 4.939 8.53334 5.00586 8.53334C5.07272 8.53334 5.13768 8.51133 5.19041 8.47082C6.85609 7.19665 8.00863 6.10577 8.81311 5.00897C9.83672 3.62246 10.0712 2.34238 9.50743 1.2042Z" fill="#03C95A"/>
</svg>
