<svg width="80" height="80" viewBox="0 0 80 80" fill="none" xmlns="http://www.w3.org/2000/svg">
<circle opacity="0.1" cx="40" cy="40" r="40" fill="#0D57C6"/>
<path d="M39.4747 58C39.8416 58 40.1833 57.8464 40.4237 57.5648L53.8995 42.0512C53.9881 41.9488 54.064 41.8208 54.1146 41.7056C55.3294 40.016 56 37.9296 56 35.8048C56 30.4032 51.7991 26 46.6365 26C43.7642 26 41.1956 27.1904 39.4747 29.2512C37.7538 27.1904 35.2232 26 32.3635 26C27.2009 26 23 30.3904 23 35.8048C23 38.0704 23.7592 40.2592 25.1258 42.0128C25.1511 42.064 25.189 42.1024 25.227 42.1408L38.5257 57.5648C38.7661 57.8336 39.1077 58 39.4747 58ZM27.163 40.4896C26.1127 39.184 25.5307 37.52 25.5307 35.8048C25.5307 31.8112 28.5928 28.56 32.3635 28.56C34.9574 28.56 37.1971 29.904 38.3485 32.144C38.5637 32.5664 38.9939 32.8352 39.4747 32.8352C39.9429 32.8352 40.3857 32.5664 40.6008 32.144C41.7523 29.904 44.0046 28.56 46.6365 28.56C50.4072 28.56 53.4693 31.8112 53.4693 35.8048C53.4693 37.4816 52.9126 39.12 51.9003 40.4128C51.8497 40.4768 51.7991 40.5536 51.7611 40.6304L39.4747 54.7744L27.2009 40.5408C27.1883 40.528 27.1756 40.5024 27.163 40.4896Z" fill="#0D57C6"/>
</svg>
