<svg width="80" height="80" viewBox="0 0 80 80" fill="none" xmlns="http://www.w3.org/2000/svg">
<circle opacity="0.1" cx="40" cy="40" r="40" fill="#0D57C6"/>
<path d="M51.6781 32.1558L48.0713 37.1709C48.0536 37.1962 48.0593 37.2309 48.0839 37.2486C48.094 37.2555 48.1054 37.2593 48.1167 37.2593C48.1338 37.2593 48.1508 37.2511 48.1622 37.2359L51.769 32.2201C51.7866 32.1955 51.7809 32.1608 51.7563 32.1425C51.7311 32.1255 51.6958 32.1305 51.6781 32.1558Z" fill="#0D57C6"/>
<path d="M43.543 26.2838L40.771 30.1386C40.7534 30.1632 40.759 30.1979 40.7836 30.2162C40.7931 30.2231 40.8045 30.2269 40.8158 30.2269C40.8329 30.2269 40.8499 30.2187 40.8613 30.2036L43.6332 26.3488C43.6509 26.3242 43.6452 26.2895 43.6206 26.2712C43.596 26.2535 43.5607 26.2586 43.543 26.2838Z" fill="#0D57C6"/>
<path d="M51.6922 31.7318C51.7016 31.7388 51.713 31.7426 51.7244 31.7426C51.7414 31.7426 51.7584 31.7344 51.7698 31.7192C51.7875 31.6946 51.7818 31.6599 51.7572 31.6416L44.1284 26.1557C44.1038 26.1381 44.0691 26.1431 44.0508 26.1683C44.0331 26.193 44.0388 26.2277 44.0634 26.246L51.6922 31.7318Z" fill="#0D57C6"/>
<path d="M53.9544 31.5306C53.9355 31.4139 53.8711 31.3097 53.7752 31.241L43.8225 24.0836C43.6231 23.9403 43.3448 23.9858 43.201 24.1852L41.2991 26.8303L40.1015 26.0491C39.8958 25.9147 39.6194 25.9728 39.4857 26.1785L36.3565 30.9753L35.4296 30.4327C35.3274 30.3727 35.2069 30.3563 35.092 30.386C34.9778 30.4156 34.88 30.4894 34.8207 30.5917L32.1503 35.1519L32.2538 34.9752H27.3024C26.5894 34.9752 26.0095 35.5513 26.0013 36.2618C26.0013 36.2668 26 36.2719 26 36.2769V53.989C26 55.0977 26.9023 56 28.011 56H45.2347C46.5225 56 47.6211 55.1873 48.0527 54.049C48.0489 54.0584 48.0464 54.0685 48.0426 54.078C49.1664 53.6388 49.9659 52.5472 49.9659 51.2701V49.3764C50.9042 49.0534 51.5812 48.1637 51.5812 47.1168V43.5877C51.5812 42.6121 50.8865 41.7956 49.9659 41.6076V38.3788C49.9659 38.0652 49.9198 37.7629 49.8403 37.4746L49.0762 38.5378V42.1181V43.2936H48.2502V39.7045C48.2502 39.7033 48.2502 39.7014 48.2502 39.7001L48.2515 39.7045C48.2515 39.6982 48.2508 39.6919 48.2502 39.6856L53.8768 31.8619C53.9456 31.7659 53.9733 31.6467 53.9544 31.5306ZM39.9879 27.0373L40.7792 27.5534L34.2093 36.689H33.6918L39.9879 27.0373ZM35.364 31.4252L35.8694 31.7211L32.6293 36.689H32.2816L35.364 31.4252ZM26.891 36.2769C26.891 36.0498 27.0758 35.8649 27.303 35.8649H31.7326L31.2505 36.6883H27.3024C27.0752 36.6883 26.8903 36.5035 26.8903 36.2763C26.8897 36.0315 26.891 36.0315 26.891 36.2769ZM47.3599 52.9838C47.3599 54.1556 46.4064 55.1097 45.234 55.1097H28.011C27.3926 55.1097 26.8903 54.6068 26.8903 53.989V37.5124C27.0197 37.556 27.1585 37.5793 27.3024 37.5793H45.2347C46.4064 37.5793 47.3605 38.5328 47.3605 39.7051V43.2943H46.6847V42.6279C46.6847 42.597 46.6595 42.5724 46.6292 42.5724C46.5983 42.5724 46.5736 42.5976 46.5736 42.6279V43.2943H45.8739C44.1695 43.2943 42.7732 44.5935 42.6955 46.2517C42.6552 47.1105 42.9587 47.9251 43.5505 48.5454C44.143 49.1663 44.9413 49.5077 45.7988 49.5077H46.5736V50.174C46.5736 50.2049 46.5989 50.2295 46.6292 50.2295C46.6601 50.2295 46.6847 50.2043 46.6847 50.174V49.5077H47.3605L47.3599 52.9838ZM39.9791 36.4612L40.499 35.7381L41.821 36.689H40.2959L39.9791 36.4612ZM49.0755 51.2701C49.0755 51.9522 48.7512 52.5579 48.2508 52.9472V52.9838L48.2502 49.5077H49.0755V51.2701ZM49.521 44.184C49.7671 44.184 49.9659 43.9846 49.9659 43.7391V42.532C50.3893 42.6954 50.6909 43.1068 50.6909 43.5877V47.1168C50.6909 47.9447 50.0176 48.618 49.1898 48.618H45.7975C45.1855 48.618 44.6157 48.3744 44.1935 47.9314C43.7714 47.4885 43.5543 46.9073 43.5834 46.2934C43.6382 45.1305 44.6649 44.184 45.8726 44.184H49.521ZM48.0016 38.5069V38.5081C47.6602 37.7213 46.9926 37.1073 46.1704 36.8379C46.1704 36.8379 46.1704 36.8379 46.1685 36.836C45.8966 35.7337 45.2069 34.7373 44.2238 34.0306C43.2369 33.3207 42.0683 32.9838 40.9319 33.0803C39.7709 33.1794 38.7827 33.7182 38.1505 34.5979C37.7126 35.2074 37.4886 35.9274 37.4816 36.689H35.3059L43.6641 25.0667L52.8937 31.7041L48.0016 38.5069Z" fill="#0D57C6"/>
<path d="M27.4499 53.8564V39.8924C27.4499 39.8615 27.4247 39.8369 27.3944 39.8369C27.3635 39.8369 27.3389 39.8622 27.3389 39.8924V53.8558C27.3389 54.0659 27.4158 54.2684 27.5547 54.4262C27.566 54.4388 27.5812 54.4451 27.5963 54.4451C27.6096 54.4451 27.6228 54.4407 27.6329 54.4312C27.6563 54.411 27.6582 54.3757 27.638 54.353C27.5162 54.2154 27.4499 54.0394 27.4499 53.8564Z" fill="#0D57C6"/>
<path d="M27.3944 39.6824C27.4253 39.6824 27.4499 39.6572 27.4499 39.6269V39.3902C27.4499 39.3593 27.4247 39.3347 27.3944 39.3347C27.3635 39.3347 27.3389 39.36 27.3389 39.3902V39.6269C27.3389 39.6572 27.3641 39.6824 27.3944 39.6824Z" fill="#0D57C6"/>
<path d="M46.6288 42.3035C46.6597 42.3035 46.6843 42.2782 46.6843 42.2479V42.0119C46.6843 41.981 46.6591 41.9564 46.6288 41.9564C46.5979 41.9564 46.5732 41.9817 46.5732 42.0119V42.2479C46.5732 42.2782 46.5985 42.3035 46.6288 42.3035Z" fill="#0D57C6"/>
<path d="M46.6288 50.4983C46.5979 50.4983 46.5732 50.5235 46.5732 50.5538V50.7898C46.5732 50.8207 46.5985 50.8453 46.6288 50.8453C46.6597 50.8453 46.6843 50.8201 46.6843 50.7898V50.5538C46.6843 50.5235 46.6597 50.4983 46.6288 50.4983Z" fill="#0D57C6"/>
<path d="M47.2963 44.7032H47.5859C47.6168 44.7032 47.6414 44.678 47.6414 44.6477C47.6414 44.6168 47.6162 44.5922 47.5859 44.5922H47.2963C47.2653 44.5922 47.2407 44.6174 47.2407 44.6477C47.2401 44.6786 47.2653 44.7032 47.2963 44.7032Z" fill="#0D57C6"/>
<path d="M48.0931 44.7032H49.5223C49.8435 44.7032 50.142 44.5442 50.3218 44.2779C50.3388 44.2527 50.3325 44.218 50.3067 44.201C50.2814 44.1833 50.2467 44.1902 50.2297 44.2161C50.0707 44.4515 49.8057 44.5922 49.5223 44.5922H48.0931C48.0622 44.5922 48.0376 44.6174 48.0376 44.6477C48.0376 44.6786 48.0628 44.7032 48.0931 44.7032Z" fill="#0D57C6"/>
<path d="M45.7983 47.6159C46.4695 47.6159 47.0136 47.0718 47.0136 46.4006C47.0136 45.7294 46.4695 45.1853 45.7983 45.1853C45.1271 45.1853 44.583 45.7294 44.583 46.4006C44.583 47.0718 45.1271 47.6159 45.7983 47.6159Z" fill="#0D57C6"/>
</svg>
