<svg width="12" height="10" viewBox="0 0 12 10" fill="none" xmlns="http://www.w3.org/2000/svg">
<path d="M11.2071 1.98506C10.7881 2.17129 10.3458 2.28768 9.88023 2.35752C10.3458 2.07817 10.7183 1.63587 10.8812 1.10045C10.4389 1.35652 9.95006 1.54275 9.41465 1.65915C8.99562 1.21685 8.39037 0.9375 7.73856 0.9375C6.48149 0.9375 5.45721 1.96178 5.45721 3.21884C5.45721 3.40508 5.48049 3.56803 5.52705 3.73098C3.64145 3.63787 1.94208 2.72998 0.801411 1.33324C0.615178 1.68243 0.498783 2.05489 0.498783 2.47391C0.498783 3.2654 0.894527 3.96377 1.52306 4.38279C1.1506 4.35952 0.801411 4.2664 0.475504 4.10345V4.12672C0.475504 5.24412 1.26699 6.17528 2.31455 6.38479C2.12831 6.43135 1.9188 6.45463 1.70929 6.45463C1.56962 6.45463 1.40666 6.43135 1.26699 6.40807C1.56962 7.31595 2.40766 7.99104 3.40866 7.99104C2.61717 8.5963 1.63945 8.96876 0.56862 8.96876C0.382388 8.96876 0.196156 8.96876 0.0332031 8.94548C1.05748 9.59729 2.24471 9.96976 3.54833 9.96976C7.76184 9.96976 10.0665 6.47791 10.0665 3.45163C10.0665 3.35852 10.0665 3.24212 10.0665 3.14901C10.5088 2.84638 10.9045 2.45064 11.2071 1.98506Z" fill="#02111B"/>
</svg>
